HIERARCHY
ROOT Hips
{
	OFFSET 0.000000 0.000000 0.000000
	CHANNELS 6 Xposition Yposition Zposition Zrotation Yrotation Xrotation 
	JOINT LHipJoint
	{
		OFFSET 0.000000 0.000000 0.000000
		CHANNELS 3 Zrotation Yrotation Xrotation
		JOINT LeftUpLeg
		{
			OFFSET 1.363060 -1.794630 0.839290
			CHANNELS 3 Zrotation Yrotation Xrotation
			JOINT LeftLeg
			{
				OFFSET 2.448110 -6.726130 0.000000
				CHANNELS 3 Zrotation Yrotation Xrotation
				JOINT LeftFoot
				{
					OFFSET 2.562200 -7.039590 0.000000
					CHANNELS 3 Zrotation Yrotation Xrotation
					JOINT LeftToeBase
					{
						OFFSET 0.157640 -0.433110 2.322550
						CHANNELS 3 Zrotation Yrotation Xrotation
						End Site
						{
							OFFSET 0.000000 0.000000 0.000000
						}
					}
				}
			}
		}
	}
	JOINT RHipJoint
	{
		OFFSET 0.000000 0.000000 0.000000
		CHANNELS 3 Zrotation Yrotation Xrotation
		JOINT RightUpLeg
		{
			OFFSET -1.305520 -1.794630 0.839290
			CHANNELS 3 Zrotation Yrotation Xrotation
			JOINT RightLeg
			{
				OFFSET -2.542530 -6.985550 0.000000
				CHANNELS 3 Zrotation Yrotation Xrotation
				JOINT RightFoot
				{
					OFFSET -2.568260 -7.056230 0.000000
					CHANNELS 3 Zrotation Yrotation Xrotation
					JOINT RightToeBase
					{
						OFFSET -0.164730 -0.452590 2.363150
						CHANNELS 3 Zrotation Yrotation Xrotation
						End Site
						{
							OFFSET 0.000000 0.000000 0.000000
						}
					}
				}
			}
		}
	}
	JOINT LowerBack
	{
		OFFSET 0.000000 0.000000 0.000000
		CHANNELS 3 Zrotation Yrotation Xrotation
		JOINT Spine
		{
			OFFSET 0.028270 2.035590 -0.193380
			CHANNELS 3 Zrotation Yrotation Xrotation
			JOINT Spine1
			{
				OFFSET 0.056720 2.048850 -0.042750
				CHANNELS 3 Zrotation Yrotation Xrotation
				JOINT Neck
				{
					OFFSET 0.000000 0.000000 0.000000
					CHANNELS 3 Zrotation Yrotation Xrotation
					JOINT Neck1
					{
						OFFSET -0.054170 1.746240 0.172020
						CHANNELS 3 Zrotation Yrotation Xrotation
						JOINT Head
						{
							OFFSET 0.104070 1.761360 -0.123970
							CHANNELS 3 Zrotation Yrotation Xrotation
							End Site
							{
								OFFSET 0.000000 0.000000 0.000000
							}
						}
					}
				}
				JOINT LeftShoulder
				{
					OFFSET 0.000000 0.000000 0.000000
					CHANNELS 3 Zrotation Yrotation Xrotation
					JOINT LeftArm
					{
						OFFSET 3.362410 1.200890 -0.311210
						CHANNELS 3 Zrotation Yrotation Xrotation
						JOINT LeftForeArm
						{
							OFFSET 4.983000 -0.000000 -0.000000
							CHANNELS 3 Zrotation Yrotation Xrotation
							JOINT LeftHand
							{
								OFFSET 3.483560 -0.000000 -0.000000
								CHANNELS 3 Zrotation Yrotation Xrotation
								JOINT LeftFingerBase
								{
									OFFSET 0.000000 0.000000 0.000000
									CHANNELS 3 Zrotation Yrotation Xrotation
									JOINT LeftHandIndex1
									{
										OFFSET 0.715260 -0.000000 -0.000000
										CHANNELS 3 Zrotation Yrotation Xrotation
										End Site
										{
											OFFSET 0.000000 0.000000 0.000000
										}
									}
								}
								JOINT LThumb
								{
									OFFSET 0.000000 0.000000 0.000000
									CHANNELS 3 Zrotation Yrotation Xrotation
									End Site
									{
										OFFSET 0.000000 0.000000 0.000000
									}
								}
							}
						}
					}
				}
				JOINT RightShoulder
				{
					OFFSET 0.000000 0.000000 0.000000
					CHANNELS 3 Zrotation Yrotation Xrotation
					JOINT RightArm
					{
						OFFSET -3.136600 1.374050 -0.404650
						CHANNELS 3 Zrotation Yrotation Xrotation
						JOINT RightForeArm
						{
							OFFSET -5.241900 -0.000000 -0.000000
							CHANNELS 3 Zrotation Yrotation Xrotation
							JOINT RightHand
							{
								OFFSET -3.444170 -0.000000 -0.000000
								CHANNELS 3 Zrotation Yrotation Xrotation
								JOINT RightFingerBase
								{
									OFFSET 0.000000 0.000000 0.000000
									CHANNELS 3 Zrotation Yrotation Xrotation
									JOINT RightHandIndex1
									{
										OFFSET -0.622530 -0.000000 -0.000000
										CHANNELS 3 Zrotation Yrotation Xrotation
										End Site
										{
											OFFSET 0.000000 0.000000 0.000000
										}
									}
								}
								JOINT RThumb
								{
									OFFSET 0.000000 0.000000 0.000000
									CHANNELS 3 Zrotation Yrotation Xrotation
									End Site
									{
										OFFSET 0.000000 0.000000 0.000000
									}
								}
							}
						}
					}
				}
			}
		}
	}
}
MOTION
Frames: 5
Frame Time: 0.008333
1.210959 17.218232 -1.228716 117.152494 -78.962784 -116.600818 -4.466824 -5.306737 2.078472 -9.596748 -6.455793 -90.613209 -4.876855 -2.009468 -5.490368 -0.287149 2.405699 17.380578 2.050000 0.000000 -50.363600 11.447399 1.941936 -5.365835 1.789611 0.670201 -1.649785 1.143784 -1.665194 17.058841 -1.097447 -3.660052 -8.046416 -0.135100 -0.000001 -51.282700 -10.659306 -0.016760 6.332559 -2.924746 0.586007 -2.366960 -6.970967 0.494955 -1.771815 10.792312 -2.120930 -5.322476 -4.209782 -0.331323 0.377784 0.000000 0.000000 0.000000 -5.417750 4.400694 2.269572 -76.745256 8.584065 12.925283 -2.851217 -22.058986 0.001276 2.509747 -2.082142 -0.045021 -0.002272 -0.028241 -0.000000 0.000000 0.000000 0.000000 0.000000 0.000000 0.000000 19.392228 2.457032 1.888702 71.973996 11.565643 9.284180 3.142509 19.630496 0.015155 2.149001 9.569102 0.178537 0.054320 -0.131731 0.000000 0.000000 0.000000 0.000000 0.000000 0.000000 0.000000 
1.202939 17.214013 -1.226391 117.457841 -79.124686 -116.773613 -4.626527 -5.123655 2.089376 -9.935950 -6.654034 -91.065550 -4.695719 -1.598930 -2.115710 0.113776 4.699345 16.489884 3.029100 0.000000 -48.727100 11.396705 1.883687 -5.194898 2.093539 1.239418 -1.925742 1.137519 -1.670664 17.372693 -1.199291 -4.179093 -8.285878 -0.131399 0.000000 -50.879800 -10.480749 -0.109824 6.108439 -2.879314 0.491326 -2.399571 -6.982373 0.398419 -1.713369 10.828301 -2.172629 -5.355136 -4.219019 -0.331993 0.374464 0.000000 0.000000 0.000000 -5.502232 4.608874 2.256912 -76.917183 8.672204 12.496826 -2.851520 -22.016680 0.001231 2.429107 -2.027532 -0.042422 -0.002211 -0.028231 -0.000000 0.000000 0.000000 0.000000 0.000000 0.000000 0.000000 19.492981 2.360136 1.846002 72.146434 11.622731 9.760374 3.180513 19.585634 0.015576 2.724463 9.284189 0.220831 0.051577 -0.128115 0.000000 0.000000 0.000000 0.000000 0.000000 0.000000 0.000000 
1.195746 17.209386 -1.224995 117.441858 -79.332522 -116.722999 -4.782111 -5.012386 2.058358 -9.679752 -6.811230 -91.106666 -4.366386 -1.157175 1.251059 0.543777 7.048901 16.374268 4.053400 -0.000000 -46.903400 11.336081 1.830998 -5.075225 2.423777 1.730617 -1.988551 1.132376 -1.676011 17.565322 -1.307166 -4.731705 -8.480677 -0.130600 -0.000000 -50.466900 -10.306363 -0.212561 5.988075 -2.837517 0.386359 -2.409170 -6.996994 0.293395 -1.665535 10.883260 -2.289038 -5.394495 -4.226504 -0.332390 0.368251 0.000000 0.000000 0.000000 -5.540053 4.709675 2.247776 -77.073952 8.783988 12.141206 -2.851648 -22.007707 0.001195 2.355100 -1.981796 -0.040222 -0.002216 -0.028294 -0.000000 0.000000 0.000000 0.000000 0.000000 0.000000 0.000000 19.608889 2.190170 1.811555 72.328858 11.704088 10.174509 3.211061 19.566657 0.015873 3.224498 9.032358 0.255127 0.049000 -0.125027 0.000000 0.000000 0.000000 0.000000 0.000000 0.000000 0.000000 
1.189461 17.204901 -1.224528 116.950755 -79.572723 -116.284004 -4.914426 -4.972966 2.000222 -8.885417 -6.999207 -90.659070 -3.927710 -0.746431 4.327063 0.943871 9.235581 17.050956 5.098500 0.000000 -45.308101 11.281959 1.788673 -5.013550 2.723229 2.047665 -1.878963 1.128671 -1.679822 17.639373 -1.405080 -5.233278 -8.624910 -0.131600 0.000000 -50.090800 -10.155730 -0.325565 5.962589 -2.804210 0.270934 -2.398253 -7.013867 0.179593 -1.631857 10.953338 -2.459611 -5.434443 -4.232437 -0.332608 0.360855 0.000000 0.000000 0.000000 -5.533313 4.689921 2.243128 -77.207534 8.919704 11.880442 -2.852246 -22.031685 0.001167 2.284855 -1.948820 -0.038321 -0.002261 -0.028419 -0.000000 0.000000 0.000000 0.000000 0.000000 0.000000 0.000000 19.735236 1.956634 1.784280 72.520766 11.781199 10.506564 3.230630 19.588920 0.016048 3.613849 8.838506 0.280322 0.046738 -0.122669 0.000000 0.000000 0.000000 0.000000 0.000000 0.000000 0.000000 
1.183675 17.201216 -1.224854 115.903335 -79.844937 -115.348424 -5.018629 -4.981375 1.926299 -7.765516 -7.296592 -89.783919 -3.451260 -0.392190 7.026822 1.246392 10.934709 18.376099 6.041400 -0.000000 -44.265900 11.244786 1.754577 -5.002997 2.970087 2.143758 -1.650778 1.127135 -1.678991 17.595469 -1.483494 -5.637377 -8.712873 -0.134600 -0.000000 -49.776300 -10.025012 -0.448825 6.010826 -2.778513 0.144885 -2.372239 -7.032025 0.056471 -1.613043 11.031556 -2.663862 -5.469530 -4.236874 -0.332720 0.354060 0.000000 0.000000 0.000000 -5.488619 4.559752 2.243662 -77.310513 9.066098 11.740265 -2.853768 -22.077227 0.001143 2.216943 -1.931934 -0.036920 -0.002373 -0.028533 -0.000000 0.000000 0.000000 0.000000 0.000000 0.000000 0.000000 19.861354 1.679831 1.761017 72.722085 11.817324 10.721267 3.237139 19.669556 0.016111 3.872395 8.719707 0.296719 0.044870 -0.121164 0.000000 0.000000 0.000000 0.000000 0.000000 0.000000 0.000000 
